PathFileType	4	(X/Y/Z)	Apose_0-50.trc
DataRate	CameraRate	NumFrames	NumMarkers	Units	OrigDataRate	OrigDataStartFrame	OrigNumFrames
30	30	6	22	m	30	0	50
Frame#	Time	Hip			RHip			RKnee			RAnkle			RBigToe			RSmallToe			RHeel			LHip			LKnee			LAnkle			LBigToe			LSmallToe			LHeel			Neck			Head			Nose			RShoulder			RElbow			RWrist			LShoulder			LElbow			LWrist		
		X1	Y1	Z1	X2	Y2	Z2	X3	Y3	Z3	X4	Y4	Z4	X5	Y5	Z5	X6	Y6	Z6	X7	Y7	Z7	X8	Y8	Z8	X9	Y9	Z9	X10	Y10	Z10	X11	Y11	Z11	X12	Y12	Z12	X13	Y13	Z13	X14	Y14	Z14	X15	Y15	Z15	X16	Y16	Z16	X17	Y17	Z17	X18	Y18	Z18	X19	Y19	Z19	X20	Y20	Z20	X21	Y21	Z21	X22	Y22	Z22
1	0.03333333333333333	0.06142038406160507	0.9162960044202392	0.37118368039386723	0.053025256085890315	0.8836822696033924	0.483110606256494	0.020934877863462983	0.5091701340575567	0.5016045042882628	-0.00697796953541954	0.11115119455441827	0.5175221262564774	0.19705803230896354	0.038974102059508055	0.5611578172443943	0.14241303855320497	0.0378316932067237	0.6151022110357185	-0.04835885662222507	0.05208351556458369	0.5070791287595717	0.05238528845939445	0.8862366843232024	0.2606315195409366	0.03301243602118014	0.5122794430054022	0.2308610310442281	0.0070505664672610505	0.11605084686608688	0.20857275603340064	0.21686600832801348	0.04459895618111118	0.18240836145708153	0.1626195701556565	0.03968277081780211	0.13100276298463515	-0.02900256318419829	0.04568657751376786	0.22693436226675984	0.05390048546657909	1.5975824628886823	0.36620658137867446	0.2210201613510719	1.8166604453308564	0.27791117627623085	0.20938688778927964	1.6512923969255915	0.32541677866062013	0.03463748683734547	1.4873157273575426	0.5538192061562071	0.1083632150679035	1.23564147929677	0.7308153151081479	0.1849472858639303	1.0379918240196733	0.8918951585687395	0.00440685914860688	1.4755640710972089	0.1662674252243187	0.02016899326070121	1.228627687866032	0.012779944755929527	0.08285525729581567	1.017968880467691	-0.1369154620930691
2	0.06666666666666667	0.059635566020695675	0.915767163029221	0.36933967621432	0.05266310235309248	0.8808730308839345	0.4807133164873661	0.020876547095513925	0.5053937286601655	0.5015964245263127	-0.008791729245675959	0.10581390453577616	0.5202159578319683	0.19696890255073615	0.04257258058193698	0.5624974549321115	0.14179706435054001	0.03708496924376113	0.6155006147650781	-0.041907041974268595	0.04032118318142003	0.5022564701827057	0.05141362304727517	0.883328704967189	0.25860115950964335	0.03171127646579109	0.5106341449040783	0.22990557484966637	0.00446984279650653	0.12418682141224346	0.21256617294615046	0.21491245645975732	0.046852519289012635	0.18176600497146067	0.1598367760159067	0.042778643964789115	0.12613043567975613	-0.028381713944596296	0.046878339270166505	0.22737583657814917	0.05065565636041556	1.5954200376768903	0.3663607013587319	0.17424348066615525	1.799100548807527	0.33836685214372547	0.21439406519909573	1.6365029883977822	0.32664431155810375	0.03155812885607284	1.4855458233926018	0.5522863149738395	0.1059400967871698	1.2321890337707389	0.7274624392539178	0.1719820510524894	1.0377887400129233	0.8953117388273039	0.003523080292940126	1.473212506467626	0.15956902652561866	0.02389436966488003	1.2226770283323076	0.01203162045978232	0.07833628540542578	1.023071571847868	-0.1339606008140337
3	0.1	0.04837117570827802	0.9182899542363544	0.3666281494948034	0.039024989969979884	0.8835246918645556	0.4756418795616864	0.011326073867996379	0.5082397014149209	0.5015430203396032	-0.005855305172000431	0.10319519791794778	0.5193436064295716	0.20309836069920076	0.04234707004735997	0.5610730662023736	0.14327582809123365	0.034489342963995924	0.6127044617229631	-0.04776135793657002	0.04340389379237204	0.5090557652255533	0.038870505340468126	0.8873249626014282	0.2536887265426264	0.024199318984534337	0.5128470741568016	0.22764493275863987	0.011289815851130624	0.11620886955683549	0.2106815026261328	0.22018830744099685	0.04758736120588503	0.18091196610768423	0.16951743512862935	0.04599926713562937	0.1281089338937067	-0.028703810343708617	0.05219057402077937	0.22905060386855483	0.07215884074549686	1.5890578131036526	0.36874437679948047	0.2432421722966848	1.755677753954125	0.34363323815815733	0.31436214430978343	1.617436769383811	0.35029711770873884	0.03121558144702184	1.4873020278800377	0.550023185234444	0.09052005599187869	1.2274655323580665	0.7327262978271512	0.14684906437368728	1.0440837188792642	0.9008343557328381	0.010285602062643201	1.4798017809435717	0.1574108583797131	0.007200859138726804	1.228194262049585	0.006598811241653393	0.05579577631472807	1.0163463465427047	-0.14697989354360483
4	0.13333333333333333	0.044726633021314105	0.9191038822500808	0.3633410969884172	0.03643856744279201	0.8859721549609472	0.4753029852487664	0.011055967217549293	0.5092251384811329	0.5021792800901094	-0.006219819337512725	0.10266059165364654	0.5174689127121832	0.19995222169787513	0.04100047920647304	0.5614380151653308	0.14436965689962536	0.03973054122902182	0.615743647439483	-0.051231492513876674	0.04723615454588008	0.5090375184856853	0.03739386489157254	0.888343116552983	0.25462014017384255	0.02540502125565723	0.5153118774161469	0.225475679357775	0.002937796663693518	0.12274336928616711	0.2121521321601088	0.2175515460877231	0.04451723951426167	0.18009690730902883	0.16744437457518185	0.04111785370996327	0.1268137482426359	-0.030911248316840376	0.051297679509191084	0.2245442800532058	0.07294297939715227	1.5887660818884735	0.3669652582041182	0.3233788250029101	1.7612851321873106	0.2699591106580306	0.2395234311898	1.5784258546600511	0.3250350339367463	0.03310689690716891	1.4899422887180407	0.5492423065680885	0.08705439005524077	1.2301091167744842	0.733492694669873	0.14290332015669518	1.046073318653414	0.9011065179015484	0.011357724983079309	1.476661313377248	0.15508961747925937	0.010316381806334445	1.2267071190835064	0.004697605641874667	0.05076134395074626	1.0230901158361503	-0.1437032161899909
5	0.16666666666666666	0.04324594671598503	0.9207648622474676	0.3649785597281558	0.033500322900536374	0.8874167000059019	0.4784463374333065	0.010019003164968376	0.5090898773019272	0.5054088684308723	-0.007566748295605194	0.10479520521442458	0.5189700634714051	0.20060039651126677	0.04174086114022502	0.5619148554422408	0.14656103397008888	0.04029272425804392	0.6145067623967456	-0.03873623667559585	0.03677561099808733	0.4998990365876258	0.034627769896727154	0.8874017244308224	0.2540865461854359	0.020411269795377288	0.513406782569543	0.228066351245024	0.008474845755547274	0.11189281392708582	0.2073118161305915	0.21732069134307713	0.046281981619022486	0.18139680267429847	0.1673317210859283	0.042956970695749074	0.12832739040495436	-0.029237023164701018	0.04784713707854073	0.22784996903797836	0.07416332769616736	1.589539803569465	0.36377181734581615	0.33577191482444446	1.760116503467658	0.2648915377694042	0.24061708917937633	1.5766033256508467	0.32824256610309144	0.03239683512381972	1.489489807484793	0.5465311070824271	0.07491808760657542	1.2406413773443588	0.7234948210850969	0.14268368740265575	1.0467884462932824	0.9023509813894326	0.01384232352889187	1.478193882856463	0.15418441307877348	0.008731688331870754	1.2291905883938008	0.00548269710074997	0.05183768945633446	1.0226538106983893	-0.1462215765661968
6	0.2	0.04126587369878008	0.9204106645874739	0.3648293952333929	0.0349163729687334	0.8871401489955653	0.4781968406477838	0.006897192267456605	0.5081690471360438	0.5050708851440032	-0.009002060323622598	0.1023324580079016	0.5182430914387746	0.20235563228694756	0.04309844173922692	0.5606550277260757	0.14546051085688336	0.039859841268001434	0.6139283893753081	-0.04827551935912142	0.04421600096140951	0.508228079370129	0.03280121354727149	0.8873377643839203	0.2542293609606132	0.01599545359487529	0.5143389734282459	0.22972885542867244	0.005271150914384221	0.11138591717941398	0.20737867836519736	0.2185360541124297	0.04299255547067291	0.18164321179795126	0.16538209468239642	0.0414647366344055	0.12700678726515033	-0.03225662424367503	0.04773438295373625	0.22795656467145325	0.07615573092107643	1.588618579990666	0.3649324977431199	0.25620762829863647	1.7486899865715113	0.34051635885051196	0.24163789733846316	1.5731438009438938	0.3263792174105398	0.030401892492493938	1.490297170887406	0.5465734817221933	0.07233903202343768	1.2402126877478339	0.7227167605934478	0.13916018316143075	1.0482194812879948	0.9026835223732333	0.011967246351910038	1.4770489701557665	0.15426925619723703	0.00854683968564894	1.228377369645962	0.005132385996432975	0.04640226088653135	1.0229181135753989	-0.14585377566343072
